<svg width="155" height="35" viewBox="0 0 155 35" fill="none" xmlns="http://www.w3.org/2000/svg">
<path d="M15.5878 1.49564V18.9448C15.5878 21.3663 14.8911 23.2536 13.4976 24.6068C12.1042 25.9363 10.2383 26.601 7.90018 26.601C5.53839 26.601 3.62534 25.9126 2.16103 24.5356C0.720345 23.1587 0 21.2357 0 18.7667H4.95975C4.98337 19.835 5.23136 20.666 5.70371 21.2595C6.19969 21.853 6.90823 22.1497 7.82932 22.1497C8.7268 22.1497 9.41172 21.8648 9.88408 21.2951C10.3564 20.7253 10.5926 19.9419 10.5926 18.9448V1.49564H15.5878Z" fill="#1A1675"/>
<path d="M30.0884 26.6723C28.199 26.6723 26.4985 26.2568 24.987 25.4259C23.4754 24.5712 22.2827 23.3724 21.4089 21.8292C20.5586 20.2861 20.1335 18.5056 20.1335 16.4877C20.1335 14.4697 20.5704 12.6892 21.4443 11.1461C22.3418 9.60296 23.5581 8.41595 25.0932 7.58503C26.6284 6.73038 28.3407 6.30306 30.2301 6.30306C32.1196 6.30306 33.8319 6.73038 35.367 7.58503C36.9022 8.41595 38.1067 9.60296 38.9806 11.1461C39.878 12.6892 40.3268 14.4697 40.3268 16.4877C40.3268 18.5056 39.8662 20.2861 38.9451 21.8292C38.0476 23.3724 36.8195 24.5712 35.2607 25.4259C33.7256 26.2568 32.0015 26.6723 30.0884 26.6723ZM30.0884 22.3278C30.9859 22.3278 31.8243 22.1141 32.6037 21.6868C33.4067 21.2357 34.0444 20.571 34.5168 19.6926C34.9891 18.8142 35.2253 17.7459 35.2253 16.4877C35.2253 14.6122 34.7293 13.1759 33.7374 12.1788C32.7691 11.158 31.5763 10.6475 30.1593 10.6475C28.7422 10.6475 27.5495 11.158 26.5812 12.1788C25.6365 13.1759 25.1641 14.6122 25.1641 16.4877C25.1641 18.3631 25.6246 19.8113 26.5457 20.8321C27.4905 21.8292 28.6714 22.3278 30.0884 22.3278Z" fill="#1A1675"/>
<path d="M48.9247 9.508C49.5624 8.55839 50.4362 7.78683 51.5463 7.19332C52.6799 6.59981 53.9671 6.30306 55.4078 6.30306C57.0847 6.30306 58.5962 6.71851 59.9424 7.54942C61.3123 8.38033 62.3869 9.56735 63.1663 11.1105C63.9693 12.6299 64.3708 14.3985 64.3708 16.4164C64.3708 18.4344 63.9693 20.2268 63.1663 21.7936C62.3869 23.3367 61.3123 24.5356 59.9424 25.3903C58.5962 26.2449 57.0847 26.6723 55.4078 26.6723C53.9435 26.6723 52.6563 26.3874 51.5463 25.8176C50.4599 25.2241 49.586 24.4644 48.9247 23.5385V26.3518H43.9649V0H48.9247V9.508ZM59.3047 16.4164C59.3047 15.2294 59.0568 14.2086 58.5608 13.3539C58.0884 12.4755 57.4507 11.8108 56.6477 11.3597C55.8683 10.9087 55.0181 10.6831 54.097 10.6831C53.1995 10.6831 52.3493 10.9206 51.5463 11.3954C50.7669 11.8464 50.1292 12.5112 49.6332 13.3895C49.1609 14.2679 48.9247 15.3006 48.9247 16.4877C48.9247 17.6747 49.1609 18.7074 49.6332 19.5858C50.1292 20.4642 50.7669 21.1408 51.5463 21.6156C52.3493 22.0666 53.1995 22.2922 54.097 22.2922C55.0181 22.2922 55.8683 22.0548 56.6477 21.58C57.4507 21.1052 58.0884 20.4286 58.5608 19.5502C59.0568 18.6718 59.3047 17.6272 59.3047 16.4164Z" fill="#1A1675"/>
<path d="M97.5662 26.3518H92.6065L81.3762 9.29434V26.3518H76.4164V1.46003H81.3762L92.6065 18.5531V1.46003H97.5662V26.3518Z" fill="#1A1675"/>
<path d="M155 6.62355L149.261 26.3518H143.911L140.333 12.5705L136.755 26.3518H131.37L125.596 6.62355H130.626L134.098 21.6512L137.853 6.62355H143.097L146.781 21.6156L150.253 6.62355H155Z" fill="#1A1675"/>
<path fill-rule="evenodd" clip-rule="evenodd" d="M126.386 34.9999L120.818 25.4312L121.806 24.4391L131.325 30.0354L131.301 34.9764L126.386 34.9999Z" fill="#1A1675"/>
<path fill-rule="evenodd" clip-rule="evenodd" d="M120.715 22.1303L121.505 24.0009L120.383 25.1291L118.522 24.3336L120.715 22.1303Z" fill="#1A1675"/>
<path d="M122.024 15.4141C122.024 21.1738 117.379 25.8429 111.649 25.8429C105.919 25.8429 101.274 21.1738 101.274 15.4141C101.274 9.65448 105.919 4.98535 111.649 4.98535C117.379 4.98535 122.024 9.65448 122.024 15.4141ZM104.906 15.4141C104.906 19.1579 107.925 22.1929 111.649 22.1929C115.374 22.1929 118.393 19.1579 118.393 15.4141C118.393 11.6704 115.374 8.63543 111.649 8.63543C107.925 8.63543 104.906 11.6704 104.906 15.4141Z" fill="#1A1675"/>
<path d="M110.029 10.4066C109.928 10.4465 109.837 10.5068 109.76 10.5836C109.684 10.6605 109.624 10.7523 109.584 10.8534C109.544 10.9546 109.525 11.0628 109.529 11.1715C109.532 11.2802 109.558 11.387 109.604 11.4853C109.651 11.5836 109.716 11.6713 109.798 11.743C109.879 11.8147 109.974 11.8689 110.077 11.9021C110.18 11.9354 110.289 11.947 110.397 11.9363C110.504 11.9256 110.609 11.8928 110.703 11.84C111.27 11.5725 111.903 11.4798 112.522 11.5737C113.141 11.6675 113.718 11.9437 114.182 12.3672C114.258 12.4375 114.348 12.4919 114.446 12.5272C114.543 12.5626 114.647 12.5783 114.751 12.5734C114.855 12.5685 114.956 12.5431 115.05 12.4987C115.144 12.4543 115.228 12.3917 115.298 12.3145C115.368 12.2373 115.422 12.1471 115.458 12.0489C115.493 11.9507 115.508 11.8465 115.503 11.7423C115.499 11.638 115.473 11.5358 115.429 11.4413C115.385 11.3469 115.323 11.2621 115.246 11.1919C114.552 10.5555 113.685 10.141 112.756 10.0012C111.827 9.86133 110.878 10.0025 110.029 10.4066Z" fill="#1A1675"/>
</svg>
